#!OML:ASF F:\VICON\USERDATA\INSTALL\rory3\rory3.ASF
:FULLY-SPECIFIED
:DEGREES
375
root -0.79533 18.2149 -2.2304 180.514 -71.792 -190.209
lowerback 15.7437 -3.69541 -2.69754
upperback -2.22174 -5.48287 -0.0797927
thorax -11.0365 -2.43203 2.79181
lowerneck 10.7225 -16.8151 -9.7518
upperneck -11.9295 -23.3389 7.08771
head -3.33903 -11.5956 4.57123
rclavicle 1.32142e-013 1.23246e-014
rhumerus 53.9046 -21.1582 -48.1812
rradius 23.9015
rwrist 36.1681
rhand 6.20648 2.2746
rfingers 7.12502
rthumb 31.52 -25.0264
lclavicle 1.32142e-013 1.23246e-014
lhumerus 75.6373 -28.8729 60.1132
lradius 70.0243
lwrist 53.6166
lhand -17.4319 60.7328
lfingers 7.12502
lthumb 8.81857 -450.529
rfemur -3.58389 4.87812 21.8262
rtibia 42.628
rfoot -12.5481 -9.96872
rtoes 5.14809
lfemur -2.11219 -0.220381 -23.2601
ltibia 36.6458
lfoot -4.6852 -4.62369
ltoes -24.2662
376
root -0.759567 18.0338 -2.22565 180.546 -72.3004 -190.536
lowerback 16.4765 -3.69104 -2.52668
upperback -2.27711 -5.46816 -0.0842634
thorax -11.5437 -2.41577 2.75137
lowerneck 11.1371 -16.9615 -9.89944
upperneck -12.167 -23.6002 7.06327
head -3.44262 -11.7117 4.63708
rclavicle -7.0171e-014 -3.37934e-014
rhumerus 54.5415 -22.3876 -51.1527
rradius 23.71
rwrist 38.6057
rhand 5.81444 3.08241
rfingers 7.12502
rthumb 31.1465 -24.291
lclavicle -7.0171e-014 -3.37934e-014
lhumerus 74.6963 -28.875 59.6824
lradius 70.5154
lwrist 53.0157
lhand -16.9298 59.9978
lfingers 7.12502
lthumb 9.30311 -630.228
rfemur -3.67477 4.00365 21.7363
rtibia 43.5774
rfoot -14.7248 -9.52168
rtoes 3.36655
lfemur -1.9939 0.377227 -23.0343
ltibia 37.2391
lfoot -8.22447 -5.61385
ltoes -18.6149
377
root -0.725045 17.8786 -2.2196 180.064 -72.7006 -190.213
lowerback 16.945 -3.71288 -2.24442
upperback -2.2458 -5.44023 0.0131736
thorax -11.7994 -2.40741 2.73023
lowerneck 11.3955 -17.165 -10.0118
upperneck -12.4594 -23.9281 7.0099
head -3.54119 -11.8588 4.68049
rclavicle 1.77912e-014 4.37326e-015
rhumerus 54.8677 -23.0742 -53.1502
rradius 23.5907
rwrist 40.2532
rhand 5.09737 4.46279
rfingers 7.12502
rthumb 30.4628 -23.0397
lclavicle 1.77912e-014 4.37326e-015
lhumerus 73.4446 -29.0461 59.9263
lradius 71.4706
lwrist 51.6384
lhand -16.3418 59.8624
lfingers 7.12502
lthumb 9.87038 -630.389
rfemur -3.95748 3.51607 21.8227
rtibia 44.5684
rfoot -17.5035 -8.81199
rtoes 7.25253
lfemur -1.99345 1.59565 -22.5096
ltibia 37.8614
lfoot -10.9954 -6.61648
ltoes -13.9732
378
root -0.692141 17.7408 -2.21731 179.471 -72.9756 -189.486
lowerback 16.967 -3.75027 -2.04247
upperback -2.22938 -5.4267 0.193144
thorax -11.7942 -2.40741 2.81197
lowerneck 11.4162 -17.1499 -9.75237
upperneck -12.6546 -23.9036 6.79047
head -3.66479 -11.8349 4.61646
rclavicle -6.69904e-014 -1.66979e-014
rhumerus 53.9607 -22.6061 -52.7598
rradius 23.8924
rwrist 39.6531
rhand 5.3701 3.70232
rfingers 7.12502
rthumb 30.7229 -23.7516
lclavicle -6.69904e-014 -1.66979e-014
lhumerus 71.9029 -29.1614 60.1442
lradius 72.4477
lwrist 50.134
lhand -16.0737 59.5575
lfingers 7.12502
lthumb 10.1291 -630.706
rfemur -4.57587 3.30777 22.1649
rtibia 45.6671
rfoot -19.991 -9.11318
rtoes 6.77991
lfemur -2.31005 3.21502 -21.8686
ltibia 38.3781
lfoot -13.4076 -7.21862
ltoes -11.1059
379
root -0.65574 17.5787 -2.20007 179.253 -73.1841 -188.834
lowerback 16.6317 -3.80306 -1.75341
upperback -2.28875 -5.41334 0.338136
thorax -11.6783 -2.41877 2.78122
lowerneck 11.5682 -17.0589 -9.90395
upperneck -12.8103 -23.8012 6.96811
head -3.70409 -11.7875 4.7045
rclavicle 7.39976e-014 -5.96354e-015
rhumerus 52.4799 -21.9472 -51.9152
rradius 24.385
rwrist 38.4145
rhand 5.13843 3.45677
rfingers 7.12502
rthumb 30.502 -24.0384
lclavicle 7.39976e-014 -5.96354e-015
lhumerus 70.047 -29.4797 60.6109
lradius 73.4722
lwrist 48.2673
lhand -15.9037 59.2497
lfingers 7.12502
lthumb 10.2931 -631.022
rfemur -5.59821 2.29069 22.4972
rtibia 46.6084
rfoot -22.5258 -9.62366
rtoes 13.8856
lfemur -3.28557 4.98623 -21.3702
ltibia 39.1548
lfoot -15.589 -8.0481
ltoes -7.15435
380
root -0.628152 17.4996 -2.22663 179.46 -73.4594 -188.916
lowerback 16.324 -3.72592 -2.22476
upperback -2.16855 -5.37944 0.51364
thorax -11.3027 -2.38019 3.19416
lowerneck 11.6399 -17.1 -10.165
upperneck -12.8748 -23.8781 7.18938
head -3.67042 -11.8316 4.79842
rclavicle -1.08835e-014 1.03368e-014
rhumerus 50.4515 -21.173 -50.3734
rradius 25.0011
rwrist 36.9054
rhand 4.00451 3.73927
rfingers 7.12502
rthumb 29.42 -23.9515
lclavicle -1.08835e-014 1.03368e-014
lhumerus 68.2283 -29.9296 60.6288
lradius 74.8423
lwrist 46.4598
lhand -16.0418 58.7129
lfingers 7.12502
lthumb 10.1598 -631.552
rfemur -6.25493 1.8676 22.6922
rtibia 47.5331
rfoot -25.3436 -9.16693
rtoes 23.5625
lfemur -3.54717 2.28916 -22.3702
ltibia 39.6511
lfoot -17.9966 -4.25948
ltoes -6.33484
381
root -0.595748 17.4117 -2.2211 180.164 -73.9291 -189.433
lowerback 16.0293 -3.6453 -2.36028
upperback -2.05668 -5.2902 0.512148
thorax -10.9986 -2.34228 3.21525
lowerneck 11.6543 -17.5623 -9.15232
upperneck -13.3099 -24.4395 6.55665
head -3.96287 -12.087 4.57325
rclavicle -8.0806e-014 -3.26007e-014
rhumerus 48.185 -20.7795 -48.6692
rradius 25.3286
rwrist 35.4576
rhand 2.47306 4.74821
rfingers 7.12502
rthumb 27.9569 -23.1902
lclavicle -8.0806e-014 -3.26007e-014
lhumerus 66.5403 -30.8067 60.6206
lradius 76.0852
lwrist 44.3267
lhand -16.4674 58.1322
lfingers 7.12502
lthumb 9.74922 -632.113
rfemur -7.01549 0.588599 22.4699
rtibia 48.1979
rfoot -26.7984 -9.03591
rtoes 25.9388
lfemur -4.22834 3.19378 -22.4713
ltibia 40.1503
lfoot -19.509 -3.78497
ltoes -7.30425
382
root -0.561591 17.3435 -2.20904 180.671 -74.264 -189.987
lowerback 16.0125 -3.39034 -2.52882
upperback -1.89338 -4.98007 0.521607
thorax -10.8098 -2.19333 3.235
lowerneck 11.9541 -18.0781 -8.3507
upperneck -13.9492 -25.102 6.2201
head -4.29996 -12.398 4.49862
rclavicle 3.77691e-015 0
rhumerus 45.938 -20.9207 -47.8108
rradius 25.3632
rwrist 34.8825
rhand 1.03729 5.67017
rfingers 7.12502
rthumb 26.5835 -22.484
lclavicle 3.77691e-015 0
lhumerus 64.9016 -31.9593 60.4732
lradius 77.3536
lwrist 42.373
lhand -17.2431 57.6564
lfingers 7.12502
lthumb 9.00075 -632.556
rfemur -7.38323 -0.272196 22.2213
rtibia 48.6511
rfoot -27.8634 -8.67809
rtoes 27.5979
lfemur -4.4315 2.67623 -23.059
ltibia 40.3617
lfoot -20.665 -1.81434
ltoes -8.16939
383
root -0.529583 17.2918 -2.19757 181.643 -74.6039 -191.202
lowerback 16.1883 -3.39736 -2.88065
upperback -1.6669 -5.05173 0.625956
thorax -10.6133 -2.21308 3.56443
lowerneck 12.0803 -18.0742 -8.79999
upperneck -14.428 -25.1419 6.67773
head -4.34946 -12.4246 4.70673
rclavicle -4.32357e-014 -7.95139e-016
rhumerus 44.0136 -19.8947 -46.7882
rradius 25.4113
rwrist 33.8643
rhand -0.770019 5.65142
rfingers 7.12502
rthumb 24.8526 -22.7532
lclavicle -4.32357e-014 -7.95139e-016
lhumerus 62.6505 -32.5394 61.0929
lradius 78.8335
lwrist 39.5747
lhand -16.8176 57.4009
lfingers 7.12502
lthumb 9.41137 -632.829
rfemur -7.3638 -1.07332 21.8991
rtibia 48.8083
rfoot -27.905 -10.1783
rtoes 21.3581
lfemur -4.53156 3.30128 -23.2892
ltibia 40.7352
lfoot -21.5269 -2.32192
ltoes -4.61365
384
root -0.503105 17.2526 -2.19141 182.424 -74.9218 -192.208
lowerback 16.2909 -3.46886 -3.06923
upperback -1.45429 -5.19967 0.493124
thorax -10.4206 -2.2876 3.55777
lowerneck 12.3575 -17.9461 -8.9671
upperneck -14.8573 -24.9177 7.51505
head -4.40592 -12.3628 4.99601
rclavicle 6.31638e-014 -7.95139e-016
rhumerus 41.6797 -18.744 -46.0952
rradius 25.5855
rwrist 32.569
rhand -2.19271 5.59647
rfingers 7.12502
rthumb 23.4886 -22.9896
lclavicle 6.31638e-014 -7.95139e-016
lhumerus 60.19 -33.3842 60.6367
lradius 80.1107
lwrist 36.3225
lhand -15.3958 55.9044
lfingers 7.12502
lthumb 10.783 -634.392
rfemur -7.21154 -1.48961 21.6939
rtibia 48.8136
rfoot -26.9452 -12.3569
rtoes 9.87908
lfemur -4.63079 2.92594 -23.6041
ltibia 41.1436
lfoot -21.8661 -2.5879
ltoes -1.11779
385
root -0.463805 17.2251 -2.19251 181.857 -75.0943 -191.969
lowerback 16.6705 -3.46821 -3.04889
upperback -1.20196 -5.21505 0.408828
thorax -10.3661 -2.30501 3.47652
lowerneck 12.3508 -17.9842 -8.91726
upperneck -14.9768 -24.8712 8.17672
head -4.35842 -12.3947 5.16656
rclavicle 1.78906e-015 -1.51076e-014
rhumerus 39.117 -17.4245 -45.0795
rradius 25.7855
rwrist 30.6936
rhand -3.08725 5.56
rfingers 7.12502
rthumb 22.6302 -23.1333
lclavicle 1.78906e-015 -1.51076e-014
lhumerus 57.7294 -34.5057 60.3945
lradius 81.2163
lwrist 32.6523
lhand -13.9465 54.4401
lfingers 7.12502
lthumb 12.1807 -635.935
rfemur -6.9106 -1.15419 21.9878
rtibia 48.8029
rfoot -26.2204 -13.6582
rtoes 3.61258
lfemur -4.64803 2.70414 -23.4881
ltibia 41.5468
lfoot -21.9215 -2.04006
ltoes -5.42444
386
root -0.42545 17.2112 -2.18701 181.512 -75.2554 -191.998
lowerback 17.0515 -3.39427 -2.8893
upperback -0.883048 -5.10801 0.297419
thorax -10.2611 -2.27609 3.25497
lowerneck 12.0459 -18.3455 -8.56271
upperneck -15.0518 -25.2636 8.31998
head -4.32421 -12.6157 5.14189
rclavicle 3.19546e-014 -1.15295e-014
rhumerus 36.337 -16.4896 -44.5741
rradius 25.9993
rwrist 30.2101
rhand -4.92242 5.72351
rfingers 7.12502
rthumb 20.8679 -23.1741
lclavicle 3.19546e-014 -1.15295e-014
lhumerus 55.2315 -35.8143 60.8295
lradius 82.0704
lwrist 28.9311
lhand -14.6474 54.1589
lfingers 7.12502
lthumb 11.5048 -636.177
rfemur -6.67342 -0.799211 22.1062
rtibia 48.8199
rfoot -26.1274 -13.8283
rtoes 3.60297
lfemur -4.70757 2.47555 -23.4414
ltibia 41.9116
lfoot -21.7048 -1.87147
ltoes -9.42493
387
root -0.39431 17.2226 -2.18092 181.473 -75.3989 -192.38
lowerback 17.4042 -3.31044 -2.88659
upperback -0.551465 -5.01281 0.257067
thorax -10.1035 -2.24451 3.19768
lowerneck 11.6392 -18.4896 -8.61644
upperneck -14.925 -25.3951 8.62696
head -4.16061 -12.7099 5.16678
rclavicle 2.61899e-014 1.59028e-015
rhumerus 34.3402 -17.1017 -45.873
rradius 25.3623
rwrist 32.0756
rhand -7.37824 6.89267
rfingers 7.12502
rthumb 18.507 -22.247
lclavicle 2.61899e-014 1.59028e-015
lhumerus 52.5467 -37.1019 61.8947
lradius 82.4802
lwrist 24.8403
lhand -13.6658 52.3478
lfingers 7.12502
lthumb 12.4513 -638.043
rfemur -6.32455 -0.450455 21.9785
rtibia 48.7418
rfoot -26.696 -12.7739
rtoes 8.76005
lfemur -4.54217 0.47821 -23.998
ltibia 42.1415
lfoot -21.2294 -1.01193
ltoes -7.55781
388
root -0.369285 17.2464 -2.18804 181.058 -75.5733 -192.315
lowerback 17.6542 -3.19308 -3.15763
upperback -0.267046 -4.90495 0.441757
thorax -9.89679 -2.18808 3.52894
lowerneck 11.7497 -18.5222 -8.8954
upperneck -15.3136 -25.4371 9.13648
head -4.18836 -12.7545 5.36297
rclavicle -7.94145e-014 -7.15625e-015
rhumerus 31.5229 -15.5617 -44.9538
rradius 25.5729
rwrist 30.0258
rhand -8.81514 6.77852
rfingers 7.12502
rthumb 17.1244 -22.4868
lclavicle -7.94145e-014 -7.15625e-015
lhumerus 48.4979 -38.353 62.8963
lradius 83.1004
lwrist 21.0089
lhand -13.5205 51.3925
lfingers 7.12502
lthumb 12.5914 -639.007
rfemur -5.8522 -0.700924 21.9254
rtibia 48.3981
rfoot -26.803 -12.0584
rtoes 10.8005
lfemur -4.30251 -0.56073 -24.0802
ltibia 42.1606
lfoot -20.7739 -1.18263
ltoes -5.85119
389
root -0.351906 17.2787 -2.20181 180.507 -75.8151 -191.913
lowerback 17.6138 -3.1152 -3.34061
upperback -0.0436073 -4.82102 0.630132
thorax -9.60059 -2.15095 3.80137
lowerneck 11.6844 -18.6734 -8.63473
upperneck -15.5592 -25.6269 8.96725
head -4.29462 -12.8411 5.30987
rclavicle 7.50412e-015 1.27222e-014
rhumerus 27.796 -11.5598 -42.1656
rradius 26.6412
rwrist 24.8367
rhand -9.89472 5.95851
rfingers 7.12502
rthumb 16.085 -23.3939
lclavicle 7.50412e-015 1.27222e-014
lhumerus 44.8697 -39.583 64.2052
lradius 83.1081
lwrist 17.5378
lhand -14.068 50.4273
lfingers 7.12502
lthumb 12.0635 -639.94
rfemur -5.38406 -1.78875 21.8151
rtibia 47.7352
rfoot -26.4084 -11.1472
rtoes 12.4405
lfemur -4.15665 -0.839053 -23.7827
ltibia 41.9527
lfoot -20.1468 -2.19763
ltoes -3.29307
